<svg xmlns="http://www.w3.org/2000/svg" viewBox="0 0 64 64">
  <defs>
    <linearGradient id="ga-logo-fill" x1="10" y1="8" x2="56" y2="58" gradientUnits="userSpaceOnUse">
      <stop offset="0" stop-color="#14b8a6" />
      <stop offset="0.58" stop-color="#0f766e" />
      <stop offset="1" stop-color="#2563eb" />
    </linearGradient>
  </defs>
  <rect x="4" y="4" width="56" height="56" rx="14" fill="url(#ga-logo-fill)" />
  <path d="M42.5 23.5C39.9 19.8 36.1 18 31 18c-8 0-13.6 5.8-13.6 14s5.7 14 13.8 14c6.7 0 11.8-3.9 13-9.8H31.6v-8h22.7v4.4C54.3 45.2 45 54 31.4 54 18 54 8.3 44.8 8.3 32S18 10 31.2 10c8.5 0 15.3 3.7 19.1 10.2l-7.8 3.3Z" fill="#f8fafc" />
  <rect x="39" y="37" width="6" height="6" rx="2" fill="#fbbf24" />
  <rect x="47" y="37" width="6" height="6" rx="2" fill="#dbeafe" />
  <rect x="39" y="45" width="6" height="6" rx="2" fill="#ccfbf1" />
  <rect x="47" y="45" width="6" height="6" rx="2" fill="#bfdbfe" />
</svg>
